<svg xmlns="http://www.w3.org/2000/svg" viewBox="0 0 240 240" role="img" aria-labelledby="title desc">
  <title id="title">Small illustrated view of Uppsala</title>
  <desc id="desc">A warm circular illustration inspired by Uppsala, with cathedral spires, university rooftops, trees, river water, and a soft sunset sky.</desc>
  <defs>
    <linearGradient id="sky" x1="0" y1="0" x2="0" y2="1">
      <stop offset="0" stop-color="#f8d6b0"/>
      <stop offset="0.55" stop-color="#f6ebe0"/>
      <stop offset="1" stop-color="#cde6df"/>
    </linearGradient>
    <linearGradient id="water" x1="0" y1="0" x2="1" y2="1">
      <stop offset="0" stop-color="#7fc4bd"/>
      <stop offset="1" stop-color="#1f6f6f"/>
    </linearGradient>
    <clipPath id="circle"><circle cx="120" cy="120" r="120"/></clipPath>
  </defs>
  <g clip-path="url(#circle)">
    <rect width="240" height="240" fill="url(#sky)"/>
    <circle cx="178" cy="50" r="22" fill="#fff4cc" opacity="0.9"/>
    <path d="M0 158 C42 138 74 154 110 136 C151 116 190 131 240 105 L240 240 L0 240 Z" fill="#e5eee1"/>
    <path d="M0 182 C54 165 96 184 144 160 C184 141 212 151 240 140 L240 240 L0 240 Z" fill="#bdd8c5"/>
    <path d="M86 151 L100 151 L100 78 L93 58 L86 78 Z" fill="#7f6758"/>
    <path d="M140 151 L154 151 L154 78 L147 58 L140 78 Z" fill="#7f6758"/>
    <path d="M78 95 L162 95 L150 82 L90 82 Z" fill="#9a7461"/>
    <path d="M84 151 L156 151 L156 96 L84 96 Z" fill="#c88f72"/>
    <path d="M106 151 L134 151 L134 112 L106 112 Z" fill="#f0d8bd"/>
    <path d="M93 58 L98 79 L88 79 Z M147 58 L152 79 L142 79 Z" fill="#5f5149"/>
    <path d="M22 154 L72 154 L72 122 L22 122 Z" fill="#f2d3a7"/>
    <path d="M16 124 L47 101 L78 124 Z" fill="#b96f58"/>
    <path d="M168 160 L224 160 L224 128 L168 128 Z" fill="#f4dfbd"/>
    <path d="M162 130 L196 106 L230 130 Z" fill="#a76252"/>
    <path d="M0 198 C48 187 79 205 121 190 C157 177 198 191 240 174 L240 240 L0 240 Z" fill="url(#water)"/>
    <path d="M17 209 C51 197 84 215 121 201 C158 187 188 203 226 191" fill="none" stroke="#e9fbf5" stroke-width="4" stroke-linecap="round" opacity="0.7"/>
    <circle cx="43" cy="154" r="15" fill="#6da56e"/>
    <circle cx="207" cy="159" r="18" fill="#5d9a6b"/>
    <circle cx="185" cy="169" r="13" fill="#7daf75"/>
  </g>
</svg>
